<svg width="25" height="23" viewBox="0 0 25 23" fill="none" xmlns="http://www.w3.org/2000/svg">
<path d="M2.21877 11.5C2.21851 9.8707 2.64718 8.27002 3.46167 6.85889C4.27617 5.44776 5.44779 4.27591 6.85876 3.46113C8.26973 2.64636 9.87033 2.21738 11.4997 2.21732C13.129 2.21726 14.7296 2.64611 16.1406 3.46077C16.3343 3.57089 16.5637 3.59994 16.7787 3.54156C16.9938 3.48318 17.177 3.34212 17.2884 3.14917C17.3998 2.95621 17.4303 2.72703 17.3734 2.51162C17.3164 2.29622 17.1766 2.11208 16.9844 1.9994C14.8933 0.792127 12.4624 0.308556 10.0685 0.623678C7.67459 0.9388 5.45158 2.035 3.74419 3.74229C2.0368 5.44957 0.940449 7.67251 0.625174 10.0664C0.309898 12.4602 0.793313 14.8913 2.00045 16.9824C3.20758 19.0735 5.07098 20.7079 7.30164 21.6321C9.53231 22.5563 12.0056 22.7186 14.3379 22.0939C16.6702 21.4692 18.7313 20.0924 20.2014 18.1769C21.6715 16.2615 22.4685 13.9146 22.4688 11.5C22.4688 11.2762 22.3799 11.0616 22.2216 10.9034C22.0634 10.7452 21.8488 10.6563 21.625 10.6563C21.4012 10.6563 21.1866 10.7452 21.0284 10.9034C20.8702 11.0616 20.7813 11.2762 20.7813 11.5C20.7813 13.9616 19.8034 16.3223 18.0629 18.0629C16.3223 19.8034 13.9616 20.7813 11.5 20.7813C9.03847 20.7813 6.67775 19.8034 4.93718 18.0629C3.19661 16.3223 2.21877 13.9616 2.21877 11.5Z" fill="#BBBAB9"/>
<path d="M23.91 3.6599C23.9884 3.58145 24.0506 3.48832 24.0931 3.38583C24.1356 3.28333 24.1574 3.17347 24.1574 3.06253C24.1574 2.95159 24.1356 2.84173 24.0931 2.73923C24.0506 2.63673 23.9884 2.5436 23.91 2.46515C23.8315 2.3867 23.7384 2.32448 23.6359 2.28202C23.5334 2.23956 23.4235 2.21771 23.3126 2.21771C23.2016 2.21771 23.0918 2.23956 22.9893 2.28202C22.8868 2.32448 22.7937 2.3867 22.7152 2.46515L11.5001 13.682L7.03496 9.21515C6.95652 9.1367 6.86338 9.07448 6.76089 9.03202C6.65839 8.98956 6.54853 8.96771 6.43759 8.96771C6.32665 8.96771 6.21679 8.98956 6.11429 9.03202C6.01179 9.07448 5.91866 9.1367 5.84021 9.21515C5.76177 9.2936 5.69954 9.38673 5.65708 9.48923C5.61463 9.59173 5.59277 9.70158 5.59277 9.81253C5.59277 9.92347 5.61463 10.0333 5.65708 10.1358C5.69954 10.2383 5.76177 10.3315 5.84021 10.4099L10.9027 15.4724C10.9811 15.551 11.0742 15.6133 11.1767 15.6559C11.2792 15.6984 11.3891 15.7203 11.5001 15.7203C11.6111 15.7203 11.721 15.6984 11.8235 15.6559C11.926 15.6133 12.0191 15.551 12.0975 15.4724L23.91 3.6599Z" fill="#BBBAB9"/>
</svg>
