<svg width="39" height="39" viewBox="0 0 39 39" fill="none" xmlns="http://www.w3.org/2000/svg">
<path fill-rule="evenodd" clip-rule="evenodd" d="M33.4204 7.42126C33.5413 7.30039 33.6372 7.1569 33.7026 6.99898C33.768 6.84106 33.8016 6.67179 33.8016 6.50086C33.8016 6.32993 33.768 6.16067 33.7026 6.00274C33.6372 5.84482 33.5413 5.70133 33.4204 5.58046C33.2995 5.45959 33.156 5.36371 32.9981 5.2983C32.8402 5.23289 32.6709 5.19922 32.5 5.19922C32.3291 5.19922 32.1598 5.23289 32.0019 5.2983C31.844 5.36371 31.7005 5.45959 31.5796 5.58046L19.5 17.6627L7.42041 5.58046C7.29954 5.45959 7.15605 5.36371 6.99812 5.2983C6.8402 5.23289 6.67094 5.19922 6.50001 5.19922C6.32907 5.19922 6.15981 5.23289 6.00189 5.2983C5.84397 5.36371 5.70047 5.45959 5.57961 5.58046C5.45874 5.70133 5.36286 5.84482 5.29745 6.00274C5.23203 6.16067 5.19836 6.32993 5.19836 6.50086C5.19836 6.67179 5.23203 6.84106 5.29745 6.99898C5.36286 7.1569 5.45874 7.30039 5.57961 7.42126L17.6618 19.5009L5.57961 31.5805C5.3355 31.8246 5.19836 32.1556 5.19836 32.5009C5.19836 32.8461 5.3355 33.1772 5.57961 33.4213C5.82371 33.6654 6.15479 33.8025 6.50001 33.8025C6.84522 33.8025 7.1763 33.6654 7.42041 33.4213L19.5 21.3391L31.5796 33.4213C31.8237 33.6654 32.1548 33.8025 32.5 33.8025C32.8452 33.8025 33.1763 33.6654 33.4204 33.4213C33.6645 33.1772 33.8016 32.8461 33.8016 32.5009C33.8016 32.1556 33.6645 31.8246 33.4204 31.5805L21.3382 19.5009L33.4204 7.42126Z" fill="#878484"/>
</svg>
