<svg width="23" height="23" viewBox="0 0 23 23" fill="none" xmlns="http://www.w3.org/2000/svg">
<path d="M12.2403 1.46481C11.994 1.44662 11.747 1.43751 11.5 1.4375V0C11.7825 0.000137752 12.0649 0.0106866 12.3467 0.031625L12.2403 1.46481ZM15.1211 2.11169C14.6603 1.93386 14.187 1.7902 13.7051 1.68188L14.0199 0.278875C14.5719 0.4025 15.1115 0.566375 15.6386 0.7705L15.1211 2.11169ZM17.0904 3.13231C16.8849 2.99523 16.6744 2.86577 16.4594 2.74419L17.1681 1.49356C17.6596 1.77195 18.13 2.08617 18.5754 2.43369L17.6913 3.56788C17.4964 3.41584 17.296 3.27103 17.0904 3.13375V3.13231ZM19.7268 5.70544C19.4424 5.3015 19.1287 4.91905 18.7881 4.56119L19.8289 3.56931C20.218 3.98044 20.5759 4.41648 20.9027 4.87744L19.7268 5.70544ZM20.7963 7.64894C20.7021 7.42099 20.5994 7.19659 20.4887 6.97619L21.7724 6.32931C22.0261 6.83405 22.2423 7.3568 22.4192 7.89331L21.0536 8.34325C20.9764 8.10873 20.8906 7.87714 20.7963 7.64894ZM21.5582 11.2528C21.5465 10.7587 21.4985 10.2663 21.4144 9.77931L22.8304 9.53494C22.9262 10.0908 22.9818 10.6514 22.9971 11.2168L21.5582 11.2528ZM21.3699 13.4636C21.4178 13.2202 21.4566 12.9758 21.4863 12.7305L22.9137 12.9073C22.8445 13.4681 22.734 14.0231 22.5831 14.5676L21.1974 14.1838C21.2635 13.9471 21.321 13.707 21.3699 13.4636ZM20.0014 16.8834C20.2659 16.4656 20.4987 16.0305 20.7 15.5782L22.0139 16.1604C21.7839 16.6779 21.5179 17.1753 21.2161 17.6525L20.0014 16.8834ZM18.6156 18.6156C18.791 18.4403 18.9587 18.2591 19.1188 18.0723L20.2084 19.0109C20.0239 19.225 19.8316 19.4321 19.6319 19.6319L18.6156 18.6156Z" fill="#EBA331"/>
<path d="M11.5001 1.4375C9.84536 1.43762 8.21619 1.84582 6.75689 2.62594C5.29759 3.40606 4.05319 4.53402 3.13393 5.90992C2.21466 7.28582 1.6489 8.86719 1.48675 10.514C1.3246 12.1607 1.57107 13.8221 2.20432 15.3509C2.83758 16.8796 3.83808 18.2286 5.1172 19.2784C6.39632 20.3281 7.91459 21.0463 9.53753 21.3691C11.1605 21.692 12.838 21.6096 14.4215 21.1293C16.005 20.649 17.4456 19.7856 18.6157 18.6156L19.632 19.6319C18.2948 20.9699 16.6481 21.9574 14.838 22.5069C13.0279 23.0564 11.1102 23.151 9.25481 22.7822C7.39942 22.4134 5.66364 21.5927 4.20126 20.3927C2.73888 19.1927 1.59505 17.6506 0.871127 15.9029C0.1472 14.1552 -0.134474 12.256 0.0510612 10.3734C0.236596 8.49082 0.883612 6.68308 1.93478 5.11034C2.98595 3.5376 4.40882 2.24841 6.07731 1.357C7.7458 0.465599 9.60841 -0.000501302 11.5001 4.04596e-07V1.4375Z" fill="#EBA331"/>
<path d="M10.7812 4.3125C10.9719 4.3125 11.1547 4.38823 11.2895 4.52302C11.4243 4.65781 11.5 4.84063 11.5 5.03125V12.5206L16.169 15.1886C16.3297 15.2856 16.4461 15.4415 16.4933 15.6232C16.5406 15.8048 16.5149 15.9977 16.4218 16.1607C16.3287 16.3236 16.1755 16.4437 15.995 16.4952C15.8146 16.5467 15.6211 16.5256 15.456 16.4364L10.4247 13.5614C10.3147 13.4985 10.2233 13.4077 10.1597 13.2982C10.0961 13.1886 10.0625 13.0642 10.0625 12.9375V5.03125C10.0625 4.84063 10.1382 4.65781 10.273 4.52302C10.4078 4.38823 10.5906 4.3125 10.7812 4.3125Z" fill="#EBA331"/>
</svg>
