<svg width="22" height="23" viewBox="0 0 22 23" fill="none" xmlns="http://www.w3.org/2000/svg">
<path d="M4.3418 10.2777C4.3418 7.29262 4.3418 5.79901 5.31728 4.87223C6.29166 3.9444 7.86198 3.9444 11.0004 3.9444H14.3297C17.4681 3.9444 19.0384 3.9444 20.0128 4.87223C20.9883 5.79901 20.9883 7.29262 20.9883 10.2777V15.5555C20.9883 18.5406 20.9883 20.0342 20.0128 20.961C19.0384 21.8888 17.4681 21.8888 14.3297 21.8888H11.0004C7.86198 21.8888 6.29166 21.8888 5.31728 20.961C4.3418 20.0342 4.3418 18.5406 4.3418 15.5555V10.2777Z" stroke="#F8F8F8" stroke-width="1.5"/>
<path opacity="0.5" d="M4.34151 18.7222C3.45852 18.7222 2.6117 18.3885 1.98734 17.7947C1.36297 17.2008 1.01221 16.3953 1.01221 15.5555V9.22215C1.01221 5.24165 1.01221 3.25088 2.31285 2.01482C3.61239 0.77771 5.70541 0.77771 9.89034 0.77771H14.3294C15.2124 0.77771 16.0592 1.11134 16.6836 1.70521C17.3079 2.29907 17.6587 3.10452 17.6587 3.94438" stroke="#F8F8F8" stroke-width="1.5"/>
</svg>
