<svg xmlns="http://www.w3.org/2000/svg" viewBox="0 0 10 9" width="100%" height="100%" fill="currentColor">
  <path d="M6.75 3.6875C6.75 4.13505 6.55246 4.56428 6.20083 4.88074C5.84919 5.19721 5.37228 5.375 4.875 5.375C4.37772 5.375 3.90081 5.19721 3.54917 4.88074C3.19754 4.56428 3 4.13505 3 3.6875C3 3.23995 3.19754 2.81072 3.54917 2.49426C3.90081 2.17779 4.37772 2 4.875 2C5.37228 2 5.84919 2.17779 6.20083 2.49426C6.55246 2.81072 6.75 3.23995 6.75 3.6875Z"/>
  <path fill-rule="evenodd" clip-rule="evenodd" d="M0 4.5C0 3.30653 0.526784 2.16193 1.46447 1.31802C2.40215 0.474106 3.67392 0 5 0C6.32608 0 7.59785 0.474106 8.53553 1.31802C9.47322 2.16193 10 3.30653 10 4.5C10 5.69347 9.47322 6.83807 8.53553 7.68198C7.59785 8.52589 6.32608 9 5 9C3.67392 9 2.40215 8.52589 1.46447 7.68198C0.526784 6.83807 0 5.69347 0 4.5ZM5 0.5625C4.17611 0.562539 3.36898 0.771954 2.6715 1.16664C1.97402 1.56133 1.41455 2.12524 1.05748 2.79348C0.700404 3.46172 0.560242 4.20713 0.653124 4.9439C0.746006 5.68067 1.06816 6.37887 1.5825 6.95813C2.02625 6.31462 3.00312 5.625 5 5.625C6.99687 5.625 7.97313 6.31406 8.4175 6.95813C8.93184 6.37887 9.25399 5.68067 9.34688 4.9439C9.43976 4.20713 9.2996 3.46172 8.94252 2.79348C8.58545 2.12524 8.02598 1.56133 7.3285 1.16664C6.63102 0.771954 5.82389 0.562539 5 0.5625Z"/>
</svg>
