<svg width="21" height="28" viewBox="0 0 21 28" fill="none" xmlns="http://www.w3.org/2000/svg">
<path d="M16.449 0.119766C16.633 0.219053 16.7753 0.373484 16.8528 0.557832C16.9303 0.742179 16.9384 0.945546 16.8757 1.13471L13.4905 11.3751H19.7365C19.92 11.375 20.0996 11.425 20.253 11.5189C20.4064 11.6127 20.5269 11.7463 20.5997 11.9032C20.6724 12.0601 20.6943 12.2334 20.6624 12.4017C20.6306 12.57 20.5466 12.7259 20.4207 12.8503L5.38363 27.7244C5.23813 27.8685 5.04452 27.9624 4.83435 27.9909C4.62418 28.0193 4.40985 27.9807 4.22629 27.8813C4.04272 27.7818 3.90076 27.6274 3.82352 27.4432C3.74629 27.259 3.73834 27.0559 3.80098 26.867L7.18619 16.6248H0.940189C0.756634 16.6249 0.577075 16.5749 0.423678 16.4811C0.270282 16.3872 0.149762 16.2536 0.0769981 16.0967C0.00423402 15.9398 -0.0175894 15.7665 0.0142216 15.5982C0.0460326 15.4299 0.130085 15.274 0.256004 15.1496L15.293 0.275507C15.4383 0.131664 15.6317 0.0378159 15.8415 0.00922248C16.0514 -0.019371 16.2655 0.0189717 16.449 0.118016V0.119766ZM3.11492 14.8749H8.4587C8.60578 14.8749 8.75081 14.907 8.88213 14.9687C9.01345 15.0303 9.12739 15.1198 9.21478 15.23C9.30218 15.3401 9.36059 15.4678 9.38532 15.6028C9.41005 15.7377 9.4004 15.8762 9.35716 16.0071L6.78583 23.7819L17.5599 13.125H12.218C12.0709 13.125 11.9259 13.0929 11.7945 13.0313C11.6632 12.9696 11.5493 12.8801 11.4619 12.77C11.3745 12.6598 11.3161 12.5322 11.2913 12.3972C11.2666 12.2622 11.2763 12.1237 11.3195 11.9928L13.8908 4.21803L3.11492 14.8749Z" fill="white"/>
</svg>
