<svg width="20" height="27" viewBox="0 0 20 27" fill="none" xmlns="http://www.w3.org/2000/svg">
<path d="M3.6757 14.1745L3.41618 14.4312H3.78118H8.55242H8.55245C8.66203 14.4312 8.76971 14.4551 8.86672 14.5007C8.9637 14.5462 9.04682 14.6118 9.10999 14.6914C9.17312 14.771 9.21468 14.8624 9.23221 14.9581C9.24974 15.0537 9.24295 15.1519 9.21219 15.245L6.91637 22.1868L7.16427 22.3405L16.7839 12.8254L17.0434 12.5688H16.6785H11.9089H11.9089C11.7993 12.5688 11.6916 12.5448 11.5946 12.4993C11.4976 12.4538 11.4145 12.3881 11.3513 12.3085C11.2882 12.229 11.2466 12.1376 11.2291 12.0419C11.2116 11.9462 11.2184 11.848 11.2491 11.755L13.5449 4.8132L13.2971 4.65945L3.6757 14.1745Z" fill="white" stroke="white" stroke-width="0.3"/>
</svg>
