<svg width="30" height="30" viewBox="0 0 11 9" fill="none" xmlns="http://www.w3.org/2000/svg">
<path d="M4.375 8C4.375 8 3.75 8 3.75 7.33333C3.75 6.66667 4.375 4.66667 6.875 4.66667C9.375 4.66667 10 6.66667 10 7.33333C10 8 9.375 8 9.375 8H4.375ZM6.875 4C7.37228 4 7.84919 3.78929 8.20083 3.41421C8.55246 3.03914 8.75 2.53043 8.75 2C8.75 1.46957 8.55246 0.960859 8.20083 0.585787C7.84919 0.210714 7.37228 0 6.875 0C6.37772 0 5.90081 0.210714 5.54917 0.585787C5.19754 0.960859 5 1.46957 5 2C5 2.53043 5.19754 3.03914 5.54917 3.41421C5.90081 3.78929 6.37772 4 6.875 4ZM3.26 8C3.16739 7.79186 3.12119 7.56369 3.125 7.33333C3.125 6.43 3.55 5.5 4.335 4.85333C3.94324 4.72429 3.53498 4.66131 3.125 4.66667C0.625 4.66667 0 6.66667 0 7.33333C0 8 0.625 8 0.625 8H3.26ZM2.8125 4C3.2269 4 3.62433 3.82441 3.91735 3.51184C4.21038 3.19928 4.375 2.77536 4.375 2.33333C4.375 1.89131 4.21038 1.46738 3.91735 1.15482C3.62433 0.842261 3.2269 0.666667 2.8125 0.666667C2.3981 0.666667 2.00067 0.842261 1.70765 1.15482C1.41462 1.46738 1.25 1.89131 1.25 2.33333C1.25 2.77536 1.41462 3.19928 1.70765 3.51184C2.00067 3.82441 2.3981 4 2.8125 4Z" fill=""/>
</svg>
