<svg width="100%" height="100%" viewBox="0 0 26 26" fill="none" xmlns="http://www.w3.org/2000/svg">
  <path d="M19.0312 25.375C20.7137 25.375 22.3273 24.7066 23.517 23.517C24.7066 22.3273 25.375 20.7137 25.375 19.0312C25.375 17.3488 24.7066 15.7352 23.517 14.5455C22.3273 13.3559 20.7137 12.6875 19.0312 12.6875C17.3488 12.6875 15.7352 13.3559 14.5455 14.5455C13.3559 15.7352 12.6875 17.3488 12.6875 19.0312C12.6875 20.7137 13.3559 22.3273 14.5455 23.517C15.7352 24.7066 17.3488 25.375 19.0312 25.375ZM19.9375 16.3125V18.125H21.75C21.9904 18.125 22.2209 18.2205 22.3908 18.3904C22.5608 18.5604 22.6562 18.7909 22.6562 19.0312C22.6562 19.2716 22.5608 19.5021 22.3908 19.6721C22.2209 19.842 21.9904 19.9375 21.75 19.9375H19.9375V21.75C19.9375 21.9904 19.842 22.2209 19.6721 22.3908C19.5021 22.5608 19.2716 22.6562 19.0312 22.6562C18.7909 22.6562 18.5604 22.5608 18.3904 22.3908C18.2205 22.2209 18.125 21.9904 18.125 21.75V19.9375H16.3125C16.0721 19.9375 15.8416 19.842 15.6717 19.6721C15.5017 19.5021 15.4062 19.2716 15.4062 19.0312C15.4062 18.7909 15.5017 18.5604 15.6717 18.3904C15.8416 18.2205 16.0721 18.125 16.3125 18.125H18.125V16.3125C18.125 16.0721 18.2205 15.8416 18.3904 15.6717C18.5604 15.5017 18.7909 15.4062 19.0312 15.4062C19.2716 15.4062 19.5021 15.5017 19.6721 15.6717C19.842 15.8416 19.9375 16.0721 19.9375 16.3125ZM16.3125 5.4375C16.3125 6.87961 15.7396 8.26266 14.7199 9.28239C13.7002 10.3021 12.3171 10.875 10.875 10.875C9.43289 10.875 8.04984 10.3021 7.03011 9.28239C6.01038 8.26266 5.4375 6.87961 5.4375 5.4375C5.4375 3.99539 6.01038 2.61234 7.03011 1.59261C8.04984 0.572878 9.43289 0 10.875 0C12.3171 0 13.7002 0.572878 14.7199 1.59261C15.7396 2.61234 16.3125 3.99539 16.3125 5.4375ZM10.875 9.0625C11.8364 9.0625 12.7584 8.68058 13.4383 8.00076C14.1181 7.32094 14.5 6.39891 14.5 5.4375C14.5 4.47609 14.1181 3.55406 13.4383 2.87424C12.7584 2.19442 11.8364 1.8125 10.875 1.8125C9.91359 1.8125 8.99156 2.19442 8.31174 2.87424C7.63192 3.55406 7.25 4.47609 7.25 5.4375C7.25 6.39891 7.63192 7.32094 8.31174 8.00076C8.99156 8.68058 9.91359 9.0625 10.875 9.0625Z" fill="white"/>
  <path d="M11.339 21.75C11.1315 21.1613 10.9922 20.5507 10.9239 19.9303H1.8125C1.81431 19.4844 2.09162 18.1431 3.3205 16.9142C4.50225 15.7325 6.72619 14.5 10.875 14.5C11.3462 14.5 11.7933 14.5151 12.2162 14.5453C12.6259 13.9272 13.1152 13.3672 13.6735 12.8814C12.8277 12.7546 11.8948 12.6899 10.875 12.6875C1.8125 12.6875 0 18.125 0 19.9375C0 21.75 1.8125 21.75 1.8125 21.75H11.339Z" fill="white"/>
</svg>
