<svg width="30" height="30" viewBox="0 0 11 9" fill="blue" xmlns="http://www.w3.org/2000/svg">
  <path d="M6.01842 0.17831C5.88091 0.0641382 5.69444 0 5.5 0C5.30556 0 5.11909 0.0641382 4.98158 0.17831L0.107521 4.22579C0.0734325 4.25411 0.0463922 4.28772 0.0279437 4.32471C0.0094953 4.3617 0 4.40135 0 4.44138C0 4.48142 0.0094953 4.52107 0.0279437 4.55806C0.0463922 4.59505 0.0734325 4.62866 0.107521 4.65697C0.176365 4.71415 0.269738 4.74627 0.367099 4.74627C0.415307 4.74627 0.463043 4.73839 0.507582 4.72307C0.55212 4.70774 0.592589 4.68529 0.626677 4.65697L5.5 0.608881L10.3733 4.65697C10.4422 4.71415 10.5355 4.74627 10.6329 4.74627C10.7303 4.74627 10.8236 4.71415 10.8925 4.65697C10.9613 4.5998 11 4.52225 11 4.44138C11 4.36052 10.9613 4.28297 10.8925 4.22579L9.16636 2.79279V0.787321C9.16636 0.706561 9.12773 0.629109 9.05897 0.572003C8.99022 0.514897 8.89696 0.482815 8.79972 0.482815H8.06645C7.96921 0.482815 7.87596 0.514897 7.8072 0.572003C7.73844 0.629109 7.69981 0.706561 7.69981 0.787321V1.57477L6.01842 0.17831Z" fill=""/>
  <path d="M5.5 1.27026L9.89963 4.92433V7.48643C9.89963 7.72871 9.78375 7.96107 9.57748 8.13239C9.3712 8.30371 9.09144 8.39995 8.79972 8.39995H2.20028C1.90857 8.39995 1.6288 8.30371 1.42253 8.13239C1.21626 7.96107 1.10037 7.72871 1.10037 7.48643V4.92433L5.5 1.27026Z" fill=""/>
</svg>
