<svg width="32" height="28" viewBox="0 0 32 28" fill="none" xmlns="http://www.w3.org/2000/svg">
<path d="M17.3557 0.59437C16.9592 0.213795 16.4214 0 15.8607 0C15.3 0 14.7622 0.213795 14.3657 0.59437L0.310065 14.0861C0.211762 14.1804 0.133784 14.2925 0.0805832 14.4158C0.0273822 14.5391 0 14.6712 0 14.8047C0 14.9382 0.0273822 15.0703 0.0805832 15.1936C0.133784 15.3169 0.211762 15.429 0.310065 15.5233C0.508596 15.7139 0.777862 15.821 1.05863 15.821C1.19765 15.821 1.33531 15.7947 1.46375 15.7436C1.59218 15.6926 1.70889 15.6177 1.80719 15.5233L3.17321 14.2099V24.9549C3.17321 25.7625 3.50739 26.5371 4.10223 27.1081C4.69707 27.6792 5.50385 28 6.34509 28H25.3763C26.2176 28 27.0243 27.6792 27.6192 27.1081C28.214 26.5371 28.5482 25.7625 28.5482 24.9549V14.2099L29.9142 15.5233C30.1128 15.7139 30.382 15.821 30.6628 15.821C30.9436 15.821 31.2128 15.7139 31.4114 15.5233C31.6099 15.3327 31.7214 15.0742 31.7214 14.8047C31.7214 14.5352 31.6099 14.2767 31.4114 14.0861L26.4336 9.30936V2.62442C26.4336 2.35522 26.3222 2.09704 26.124 1.90669C25.9257 1.71633 25.6567 1.60939 25.3763 1.60939H23.2618C22.9813 1.60939 22.7124 1.71633 22.5141 1.90669C22.3159 2.09704 22.2045 2.35522 22.2045 2.62442V5.24927L17.3557 0.59437ZM26.4336 12.1798V24.9549C26.4336 25.2241 26.3222 25.4823 26.124 25.6727C25.9257 25.863 25.6567 25.97 25.3763 25.97H6.34509C6.06467 25.97 5.79575 25.863 5.59747 25.6727C5.39919 25.4823 5.28779 25.2241 5.28779 24.9549V12.1798L15.8607 2.02961L26.4336 12.1798Z" fill="white"/>
</svg>
