<svg width="30" height="30" viewBox="0 0 11 9" fill="none" xmlns="http://www.w3.org/2000/svg">
<path d="M0 0.4C0 0.293913 0.0429232 0.192172 0.119327 0.117157C0.195731 0.0421428 0.299356 0 0.407407 0H7.74074C7.84879 0 7.95242 0.0421428 8.02882 0.117157C8.10523 0.192172 8.14815 0.293913 8.14815 0.4C8.14815 0.506087 8.10523 0.607828 8.02882 0.682843C7.95242 0.757857 7.84879 0.8 7.74074 0.8H0.407407C0.299356 0.8 0.195731 0.757857 0.119327 0.682843C0.0429232 0.607828 0 0.506087 0 0.4ZM0.407407 3.2C0.299356 3.2 0.195731 3.24214 0.119327 3.31716C0.0429232 3.39217 0 3.49391 0 3.6C0 3.70609 0.0429232 3.80783 0.119327 3.88284C0.195731 3.95786 0.299356 4 0.407407 4H7.74074C7.84879 4 7.95242 3.95786 8.02882 3.88284C8.10523 3.80783 8.14815 3.70609 8.14815 3.6C8.14815 3.49391 8.10523 3.39217 8.02882 3.31716C7.95242 3.24214 7.84879 3.2 7.74074 3.2H0.407407ZM0.407407 6.4C0.299356 6.4 0.195731 6.44214 0.119327 6.51716C0.0429232 6.59217 0 6.69391 0 6.8C0 6.90609 0.0429232 7.00783 0.119327 7.08284C0.195731 7.15786 0.299356 7.2 0.407407 7.2H7.74074C7.84879 7.2 7.95242 7.15786 8.02882 7.08284C8.10523 7.00783 8.14815 6.90609 8.14815 6.8C8.14815 6.69391 8.10523 6.59217 8.02882 6.51716C7.95242 6.44214 7.84879 6.4 7.74074 6.4H0.407407Z" fill=""/>
</svg>
