<svg width="27" height="28" viewBox="0 0 27 28" fill="none" xmlns="http://www.w3.org/2000/svg">
<path d="M13.8974 7.09477C13.7753 7.03255 13.6391 7 13.5008 7C13.3625 7 13.2264 7.03255 13.1043 7.09477L0.447828 13.5566C0.313041 13.6256 0.200343 13.7283 0.121767 13.8537C0.0431912 13.9792 0.00168753 14.1228 0.00168753 14.2691C0.00168753 14.4154 0.0431912 14.5589 0.121767 14.6844C0.200343 14.8099 0.313041 14.9125 0.447828 14.9815L5.38047 17.5L0.44614 20.0185C0.311353 20.0875 0.198656 20.1901 0.12008 20.3156C0.0415037 20.4411 0 20.5846 0 20.7309C0 20.8772 0.0415037 21.0208 0.12008 21.1462C0.198656 21.2717 0.311353 21.3744 0.44614 21.4434L13.1026 27.9052C13.2247 27.9675 13.3609 28 13.4992 28C13.6375 28 13.7736 27.9675 13.8957 27.9052L26.5522 21.4434C26.687 21.3744 26.7997 21.2717 26.8782 21.1462C26.9568 21.0208 26.9983 20.8772 26.9983 20.7309C26.9983 20.5846 26.9568 20.4411 26.8782 20.3156C26.7997 20.1901 26.687 20.0875 26.5522 20.0185L21.6229 17.5L26.5539 14.9815C26.6886 14.9125 26.8013 14.8099 26.8799 14.6844C26.9585 14.5589 27 14.4154 27 14.2691C27 14.1228 26.9585 13.9792 26.8799 13.8537C26.8013 13.7283 26.6886 13.6256 26.5539 13.5566L13.8974 7.09477ZM19.8291 18.416L24.3651 20.7309L13.5008 26.2768L2.63655 20.7309L7.17262 18.416L13.1043 21.4434C13.2264 21.5056 13.3625 21.5381 13.5008 21.5381C13.6391 21.5381 13.7753 21.5056 13.8974 21.4434L19.8291 18.416ZM13.5008 19.815L2.63655 14.2691L13.5008 8.72317L24.3651 14.2691L13.5008 19.815Z" fill="white"/>
<path d="M13.8974 0.0947743C13.7753 0.0325464 13.6391 0 13.5008 0C13.3625 0 13.2264 0.0325464 13.1043 0.0947743L0.447828 6.55664C0.313041 6.62558 0.200343 6.72827 0.121767 6.85375C0.0431912 6.97922 0.00168753 7.12277 0.00168753 7.26906C0.00168753 7.41536 0.0431912 7.55891 0.121767 7.68438C0.200343 7.80985 0.313041 7.91254 0.447828 7.98149L5.38047 10.5L0.44614 13.0185C0.311353 13.0875 0.198656 13.1901 0.12008 13.3156C0.0415037 13.4411 0 13.5846 0 13.7309C0 13.8772 0.0415037 14.0208 0.12008 14.1462C0.198656 14.2717 0.311353 14.3744 0.44614 14.4434L13.1026 20.9052C13.2247 20.9675 13.3609 21 13.4992 21C13.6375 21 13.7736 20.9675 13.8957 20.9052L26.5522 14.4434C26.687 14.3744 26.7997 14.2717 26.8782 14.1462C26.9568 14.0208 26.9983 13.8772 26.9983 13.7309C26.9983 13.5846 26.9568 13.4411 26.8782 13.3156C26.7997 13.1901 26.687 13.0875 26.5522 13.0185L21.6229 10.5L26.5539 7.98149C26.6886 7.91254 26.8013 7.80985 26.8799 7.68438C26.9585 7.55891 27 7.41536 27 7.26906C27 7.12277 26.9585 6.97922 26.8799 6.85375C26.8013 6.72827 26.6886 6.62558 26.5539 6.55664L13.8974 0.0947743ZM19.8291 11.416L24.3651 13.7309L13.5008 19.2768L2.63655 13.7309L7.17262 11.416L13.1043 14.4434C13.2264 14.5056 13.3625 14.5381 13.5008 14.5381C13.6391 14.5381 13.7753 14.5056 13.8974 14.4434L19.8291 11.416ZM13.5008 12.815L2.63655 7.26906L13.5008 1.72317L24.3651 7.26906L13.5008 12.815Z" fill="white"/>
</svg>
