<svg width="30" height="30" viewBox="0 0 10 8" fill="currentColor" xmlns="http://www.w3.org/2000/svg">
  <path d="M7.585 0.0243691C7.72316 -0.00568579 7.86738 -0.00797146 8.00671 0.0176856C8.14604 0.0433426 8.27682 0.0962679 8.38911 0.172444C8.50141 0.248619 8.59227 0.346043 8.6548 0.457319C8.71733 0.568594 8.74989 0.690797 8.75 0.814649V1.47774H9.0625C9.31114 1.47774 9.5496 1.56364 9.72541 1.71654C9.90123 1.86943 10 2.0768 10 2.29303V7.18472C10 7.40094 9.90123 7.60831 9.72541 7.76121C9.5496 7.9141 9.31114 8 9.0625 8H0.9375C0.68886 8 0.450403 7.9141 0.274587 7.76121C0.0987721 7.60831 6.13073e-08 7.40094 6.13073e-08 7.18472V2.29303C-8.71629e-05 2.08315 0.0929015 1.88133 0.259611 1.72957C0.42632 1.57781 0.653907 1.4878 0.895 1.47829L7.585 0.0243691ZM3.47625 1.47774H8.125V0.814649C8.12489 0.773415 8.114 0.732743 8.09314 0.695714C8.07228 0.658684 8.042 0.626268 8.0046 0.60092C7.96721 0.575572 7.92367 0.557957 7.87728 0.54941C7.83089 0.540862 7.78288 0.541606 7.73687 0.551585L3.47625 1.47774ZM0.9375 2.02127C0.85462 2.02127 0.775134 2.0499 0.716529 2.10086C0.657924 2.15183 0.625 2.22095 0.625 2.29303V7.18472C0.625 7.25679 0.657924 7.32592 0.716529 7.37688C0.775134 7.42785 0.85462 7.45648 0.9375 7.45648H9.0625C9.14538 7.45648 9.22487 7.42785 9.28347 7.37688C9.34208 7.32592 9.375 7.25679 9.375 7.18472V2.29303C9.375 2.22095 9.34208 2.15183 9.28347 2.10086C9.22487 2.0499 9.14538 2.02127 9.0625 2.02127H0.9375Z"/>
</svg>
