<svg viewBox="0 0 17 18" fill="none" xmlns="http://www.w3.org/2000/svg">
  <path d="M6.15073 7.3215C6.16308 7.28522 6.16596 7.24639 6.1591 7.20869C6.15224 7.171 6.13586 7.13567 6.11152 7.10608C6.08718 7.07648 6.05569 7.05359 6.02003 7.03957C5.98436 7.02556 5.94571 7.02089 5.90773 7.026L1.69573 7.626C1.65438 7.63138 1.61534 7.64814 1.58296 7.67442C1.55058 7.7007 1.52614 7.73546 1.51237 7.77483C1.49861 7.81419 1.49605 7.8566 1.50498 7.89733C1.51392 7.93807 1.534 7.97551 1.56298 8.0055L4.56298 11.1015C4.58953 11.1303 4.62324 11.1515 4.66068 11.163C4.69812 11.1745 4.73794 11.1759 4.77607 11.167C4.8142 11.158 4.84929 11.1392 4.87773 11.1122C4.90618 11.0853 4.92697 11.0513 4.93798 11.0137L6.15073 7.3215Z" fill="currentColor"/>
  <path d="M4.62002 15.9937C4.60584 16.0356 4.60461 16.0809 4.61649 16.1235C4.62836 16.1662 4.65281 16.2043 4.68663 16.2328C4.72045 16.2614 4.76209 16.2791 4.80613 16.2837C4.85016 16.2883 4.89455 16.2795 4.93352 16.2585L8.87252 14.388C8.90163 14.3748 8.93321 14.368 8.96515 14.368C8.99709 14.368 9.02867 14.3748 9.05777 14.388L13.173 16.254C13.213 16.2717 13.2572 16.2774 13.3003 16.2704C13.3434 16.2634 13.3836 16.244 13.4159 16.2146C13.4481 16.1852 13.4712 16.147 13.4821 16.1047C13.4931 16.0624 13.4915 16.0179 13.4775 15.9765C12.7013 13.638 12 11.3265 11.25 8.99321C11.2364 8.95358 11.2118 8.91865 11.1791 8.89246C11.1464 8.86627 11.1069 8.8499 11.0653 8.84527C11.0236 8.84063 10.9815 8.84792 10.9439 8.86627C10.9062 8.88463 10.8745 8.9133 10.8525 8.94896L9.19052 11.931C9.17074 11.9662 9.14185 11.9954 9.10688 12.0156C9.07191 12.0358 9.03215 12.0462 8.99177 12.0457H8.92127C8.88121 12.0449 8.84208 12.0335 8.80793 12.0125C8.77378 11.9915 8.74585 11.9618 8.72702 11.9265L7.11227 8.95796C7.09351 8.92269 7.0657 8.89306 7.03169 8.8721C6.99768 8.85114 6.95871 8.83962 6.91877 8.83871H6.89627C6.84786 8.83803 6.80054 8.85319 6.76155 8.8819C6.72255 8.91061 6.69401 8.95127 6.68027 8.99771C5.95174 11.3172 5.26488 13.6496 4.62002 15.9937Z" fill="currentColor"/>
  <path d="M13.0319 10.9477C13.0433 10.9844 13.0641 11.0175 13.0922 11.0437C13.1203 11.0699 13.1547 11.0884 13.1921 11.0972C13.2295 11.1061 13.2685 11.105 13.3054 11.0942C13.3423 11.0834 13.3757 11.0631 13.4024 11.0355L16.4324 8.00549C16.462 7.97577 16.4828 7.93842 16.4924 7.89758C16.502 7.85674 16.5001 7.81403 16.4869 7.77421C16.4737 7.73439 16.4497 7.69903 16.4175 7.67206C16.3854 7.64509 16.3464 7.62759 16.3049 7.62149L12.1146 7.03499C12.0768 7.02935 12.0382 7.03345 12.0024 7.04688C11.9666 7.06031 11.9348 7.08264 11.9101 7.11176C11.8853 7.14088 11.8683 7.17583 11.8608 7.21331C11.8533 7.25079 11.8555 7.28957 11.8671 7.32599L13.0319 10.9477Z" fill="currentColor"/>
  <path d="M10.6852 6.95998C10.6993 6.92718 10.7066 6.89183 10.7066 6.85611C10.7066 6.82039 10.6993 6.78504 10.6852 6.75223L10.6627 6.69973L9.17768 1.88249C9.16564 1.83493 9.13808 1.79275 9.09936 1.76262C9.06065 1.73249 9.01299 1.71613 8.96393 1.71613C8.91487 1.71613 8.86722 1.73249 8.8285 1.76262C8.78979 1.79275 8.76223 1.83493 8.75018 1.88249L7.29218 6.69973L7.27043 6.77024C7.25325 6.82526 7.25644 6.88462 7.27943 6.93748L8.72168 10.2637C8.74009 10.3022 8.76871 10.3348 8.80443 10.3581C8.84014 10.3814 8.88157 10.3944 8.92418 10.3957H8.97743C9.02025 10.3953 9.06177 10.382 9.09768 10.3592C9.13378 10.3359 9.16224 10.3027 9.17993 10.2637L10.6799 6.95998H10.6852Z" fill="currentColor"/>
</svg>
